<?xml version="1.0" encoding="utf-8"?>
<!-- Generator: Adobe Illustrator 21.1.0, SVG Export Plug-In . SVG Version: 6.00 Build 0)  -->
<svg version="1.1" id="Layer_1" xmlns="http://www.w3.org/2000/svg" xmlns:xlink="http://www.w3.org/1999/xlink" x="0px" y="0px"
	 viewBox="0 0 1080 1080" style="enable-background:new 0 0 1080 1080;" xml:space="preserve">
<style type="text/css">
	.st0{fill:none;}
	.st1{fill:#CA0020;}
	.st2{font-family:'ArialMT';}
	.st3{font-size:200px;}
	.st4{font-size:150px;}
	.st5{font-size:125px;}
	.st6{font-size:100px;}
	.st7{font-size:53px;}
	.st8{font-size:43px;}
	.st9{font-size:28px;}
	.st10{fill:#B2022F;}
	.st11{fill:#1F78B4;}
	.st12{fill:#A6CEE3;}
</style>
<rect x="382.1" y="33" class="st0" width="315.7" height="160.7"/>
<text transform="matrix(1 0 0 1 473.3012 176.1531)" class="st1 st2 st3">P</text>
<rect x="180" y="219" class="st0" width="720" height="138.6"/>
<text transform="matrix(1 0 0 1 423.3256 326.415)" class="st1 st2 st4">E T</text>
<rect x="180" y="374.9" class="st0" width="720" height="101.9"/>
<text transform="matrix(1 0 0 1 376.7616 464.4367)"><tspan x="0" y="0" class="st1 st2 st5">E</tspan><tspan x="83.4" y="0" class="st2 st5"> B U</tspan></text>
<rect x="180" y="511.5" class="st0" width="720" height="101.9"/>
<text transform="matrix(1 0 0 1 356.6752 583.1436)" class="st2 st6">T T I G I</text>
<rect y="649.7" class="st0" width="1080" height="61.1"/>
<text transform="matrix(1 0 0 1 361.8109 687.66)" class="st2 st7">E G  C L E A R</text>
<rect y="734.1" class="st0" width="1080" height="62.7"/>
<text transform="matrix(1 0 0 1 367.9789 764.8441)" class="st2 st8">V I S I O N  F O R</text>
<rect x="0" y="832.2" class="st0" width="1080" height="62.7"/>
<text transform="matrix(1 0 0 1 370.3871 852.2798)"><tspan x="0" y="0" class="st2 st9">P R E S I D E N T </tspan><tspan x="230.3" y="0" class="st10 st2 st9"> </tspan><tspan x="238" y="0" class="st1 st2 st9">2 0 / 2 0</tspan></text>
<rect x="366.2" y="607.8" class="st11" width="350.9" height="12.6"/>
<rect x="364.2" y="793.7" class="st12" width="350.9" height="4.7"/>
</svg>
